<?xml version="1.0" encoding="UTF-8"?>
<svg viewBox="0 0 960 600" xmlns="http://www.w3.org/2000/svg" role="img" aria-labelledby="ff-compare-title ff-compare-desc">
<title id="ff-compare-title">전통적 배포 vs Feature Flag 배포</title>
<desc id="ff-compare-desc">코드 배포와 사용자 노출을 분리하는 Feature Flag 배포 방식을 전통적 배포와 비교하여 보여주는 흐름도.</desc>
<defs><style>@import url('https://fonts.googleapis.com/css2?family=Geist+Mono:wght@400;500;600&amp;display=swap');</style>
<marker id="arrow" markerWidth="8" markerHeight="6" refX="7" refY="3" orient="auto"><polygon points="0 0, 8 3, 0 6" fill="#545B64"/></marker>
<marker id="arrow-start" markerWidth="8" markerHeight="6" refX="1" refY="3" orient="auto-start-reverse"><polygon points="0 0, 8 3, 0 6" fill="#545B64"/></marker>
<marker id="arrow-accent" markerWidth="8" markerHeight="6" refX="7" refY="3" orient="auto"><polygon points="0 0, 8 3, 0 6" fill="#EC7211"/></marker>
<marker id="arrow-accent-start" markerWidth="8" markerHeight="6" refX="1" refY="3" orient="auto-start-reverse"><polygon points="0 0, 8 3, 0 6" fill="#EC7211"/></marker>
<marker id="arrow-link" markerWidth="8" markerHeight="6" refX="7" refY="3" orient="auto"><polygon points="0 0, 8 3, 0 6" fill="#0972D3"/></marker>
<marker id="arrow-open" markerWidth="8" markerHeight="6" refX="7" refY="3" orient="auto"><polyline points="0 0, 8 3, 0 6" fill="none" stroke="#545B64" stroke-width="1.2"/></marker>
</defs>
<rect width="100%" height="100%" fill="#ffffff"/>
<rect x="40" y="40" width="880" height="200" rx="8" fill="rgba(35,47,62,0.02)" stroke="rgba(35,47,62,0.10)" stroke-width="0.8"/>
<rect x="48" y="44" width="52" height="12" rx="2" fill="#ffffff"/>
<text x="74.0" y="53" fill="rgba(35,47,62,0.40)" font-size="7" font-family="'Geist Mono', monospace" text-anchor="middle" letter-spacing="0.14em">전통적 배포</text>
<rect x="40" y="280" width="880" height="260" rx="8" fill="rgba(35,47,62,0.02)" stroke="rgba(35,47,62,0.10)" stroke-width="0.8"/>
<rect x="48" y="284" width="106" height="12" rx="2" fill="#ffffff"/>
<text x="101.0" y="293" fill="rgba(35,47,62,0.40)" font-size="7" font-family="'Geist Mono', monospace" text-anchor="middle" letter-spacing="0.14em">FEATURE FLAG 배포</text>
<rect x="80" y="110" width="140" height="56" rx="6" fill="#ffffff"/>
<rect x="80" y="110" width="140" height="56" rx="6" fill="#ffffff" stroke="#232F3E" stroke-width="1"/>
<text x="150.0" y="140.0" fill="#232F3E" font-size="12" font-weight="600" font-family="'Amazon Ember', 'Helvetica Neue', Helvetica, Arial, sans-serif" text-anchor="middle">배포</text>
<rect x="400" y="110" width="140" height="56" rx="6" fill="#ffffff"/>
<rect x="400" y="110" width="140" height="56" rx="6" fill="#ffffff" stroke="#232F3E" stroke-width="1"/>
<text x="470.0" y="140.0" fill="#232F3E" font-size="12" font-weight="600" font-family="'Amazon Ember', 'Helvetica Neue', Helvetica, Arial, sans-serif" text-anchor="middle">릴리스</text>
<rect x="720" y="110" width="160" height="56" rx="6" fill="#ffffff"/>
<rect x="720" y="110" width="160" height="56" rx="6" fill="#ffffff" stroke="#232F3E" stroke-width="1"/>
<text x="800.0" y="140.0" fill="#232F3E" font-size="12" font-weight="600" font-family="'Amazon Ember', 'Helvetica Neue', Helvetica, Arial, sans-serif" text-anchor="middle">전체 사용자</text>
<line x1="220" y1="138" x2="400" y2="138" stroke="#545B64" stroke-width="1.2" marker-end="url(#arrow)"/>
<line x1="540" y1="138" x2="720" y2="138" stroke="#545B64" stroke-width="1.2" marker-end="url(#arrow)"/>
<rect x="80" y="400" width="140" height="56" rx="6" fill="#ffffff"/>
<rect x="80" y="400" width="140" height="56" rx="6" fill="#ffffff" stroke="#232F3E" stroke-width="1"/>
<text x="150.0" y="430.0" fill="#232F3E" font-size="12" font-weight="600" font-family="'Amazon Ember', 'Helvetica Neue', Helvetica, Arial, sans-serif" text-anchor="middle">배포</text>
<polygon points="400,386.0 460.0,428 400,470.0 340.0,428" fill="#ffffff"/>
<polygon points="400,386.0 460.0,428 400,470.0 340.0,428" fill="rgba(255,153,0,0.10)" stroke="#EC7211" stroke-width="1"/>
<text x="400" y="425" fill="#232F3E" font-size="10" font-weight="600" font-family="'Amazon Ember', 'Helvetica Neue', Helvetica, Arial, sans-serif" text-anchor="middle">Feature</text>
<text x="400" y="437" fill="#232F3E" font-size="10" font-weight="600" font-family="'Amazon Ember', 'Helvetica Neue', Helvetica, Arial, sans-serif" text-anchor="middle">Flag</text>
<rect x="720" y="330" width="160" height="56" rx="6" fill="#ffffff"/>
<rect x="720" y="330" width="160" height="56" rx="6" fill="#ffffff" stroke="#232F3E" stroke-width="1"/>
<text x="800.0" y="360.0" fill="#232F3E" font-size="12" font-weight="600" font-family="'Amazon Ember', 'Helvetica Neue', Helvetica, Arial, sans-serif" text-anchor="middle">대상 사용자</text>
<rect x="720" y="500" width="160" height="56" rx="6" fill="#ffffff"/>
<rect x="720" y="500" width="160" height="56" rx="6" fill="#ffffff" stroke="#232F3E" stroke-width="1"/>
<text x="800.0" y="530.0" fill="#232F3E" font-size="12" font-weight="600" font-family="'Amazon Ember', 'Helvetica Neue', Helvetica, Arial, sans-serif" text-anchor="middle">기존 경험</text>
<line x1="220" y1="428" x2="340.0" y2="428" stroke="#545B64" stroke-width="1.2" marker-end="url(#arrow)"/>
<path d="M 430.0,407.0 H 567.0 Q 575.0,407.0 575.0,399.0 V 366 Q 575.0,358 583.0,358 H 720" fill="none" stroke="#EC7211" stroke-width="1.2" marker-end="url(#arrow-accent)"/>
<rect x="569.0" y="387.0" width="24" height="12" rx="2" fill="#ffffff"/>
<text x="581.0" y="396.0" fill="#EC7211" font-size="8" font-family="'Geist Mono', monospace" text-anchor="middle" letter-spacing="0.06em">ON</text>
<path d="M 430.0,449.0 H 567.0 Q 575.0,449.0 575.0,457.0 V 520 Q 575.0,528 583.0,528 H 720" fill="none" stroke="#545B64" stroke-width="1.2" marker-end="url(#arrow)"/>
<rect x="566.5" y="429.0" width="29" height="12" rx="2" fill="#ffffff"/>
<text x="581.0" y="438.0" fill="#7D8998" font-size="8" font-family="'Geist Mono', monospace" text-anchor="middle" letter-spacing="0.06em">OFF</text>
</svg>