<?xml version="1.0" encoding="UTF-8"?>
<svg viewBox="0 0 960 616" xmlns="http://www.w3.org/2000/svg" role="img" aria-labelledby="ko-service-mesh-linkerd-02-architecture-2-title ko-service-mesh-linkerd-02-architecture-2-desc">
<title id="ko-service-mesh-linkerd-02-architecture-2-title">워크로드 인증서 발급</title>
<desc id="ko-service-mesh-linkerd-02-architecture-2-desc">linkerd-proxy가 CSR을 보내 Identity Controller가 Trust Anchor로 서명을 받아 워크로드 인증서를 발급하고 만료 전 자동 갱신하는 흐름을 보여준다.</desc>
<defs><style>@import url("https://fonts.googleapis.com/css2?family=Geist+Mono:wght@400;500;600&amp;display=swap");</style>
  <marker id="arrow" markerWidth="8" markerHeight="6" refX="7" refY="3" orient="auto"><polygon points="0 0, 8 3, 0 6" fill="#545B64"/></marker>
  <marker id="arrow-accent" markerWidth="8" markerHeight="6" refX="7" refY="3" orient="auto"><polygon points="0 0, 8 3, 0 6" fill="#EC7211"/></marker>
  <marker id="arrow-link" markerWidth="8" markerHeight="6" refX="7" refY="3" orient="auto"><polygon points="0 0, 8 3, 0 6" fill="#0972D3"/></marker>
  <marker id="arrow-open" markerWidth="8" markerHeight="6" refX="7" refY="3" orient="auto"><polyline points="0 0, 8 3, 0 6" fill="none" stroke="#545B64" stroke-width="1.2"/></marker>
  
</defs>

<rect width="100%" height="100%" fill="#ffffff"/>
<line x1="140" y1="96" x2="140" y2="516" stroke="rgba(35,47,62,0.20)" stroke-width="1" stroke-dasharray="3,3"/>
<line x1="480" y1="96" x2="480" y2="516" stroke="rgba(35,47,62,0.20)" stroke-width="1" stroke-dasharray="3,3"/>
<line x1="820" y1="96" x2="820" y2="516" stroke="rgba(35,47,62,0.20)" stroke-width="1" stroke-dasharray="3,3"/>
<rect x="97.0" y="120" width="86" height="20" rx="2" fill="rgba(35,47,62,0.04)" stroke="rgba(35,47,62,0.12)" stroke-width="0.8"/>
<text x="140" y="133" fill="#545B64" font-size="8" font-style="italic" font-family="'Amazon Ember','Helvetica Neue',Helvetica,Arial,sans-serif" text-anchor="middle">Pod 시작</text>
<line x1="140" y1="152" x2="480" y2="152" stroke="#545B64" stroke-width="1.2" marker-end="url(#arrow)"/>
<rect x="292.0" y="132" width="36" height="12" rx="2" fill="#ffffff"/>
<text x="310.0" y="141" fill="#545B64" font-size="8" font-family="'Geist Mono','Amazon Ember Mono',ui-monospace,monospace" text-anchor="middle" letter-spacing="0.06em">CSR</text>
<path d="M 480 196 L 536 196 L 536 224 L 480 224" fill="none" stroke="#545B64" stroke-width="1.2" marker-end="url(#arrow)"/>
<rect x="544" y="204.0" width="84" height="12" rx="2" fill="#ffffff"/>
<text x="586.0" y="213.0" fill="#545B64" font-size="8" font-family="'Geist Mono','Amazon Ember Mono',ui-monospace,monospace" text-anchor="middle" letter-spacing="0.06em">서비스 계정 검증</text>
<line x1="480" y1="248" x2="820" y2="248" stroke="#545B64" stroke-width="1.2" marker-end="url(#arrow)"/>
<rect x="608.0" y="228" width="84" height="12" rx="2" fill="#ffffff"/>
<text x="650.0" y="237" fill="#545B64" font-size="8" font-family="'Geist Mono','Amazon Ember Mono',ui-monospace,monospace" text-anchor="middle" letter-spacing="0.06em">인증서 서명 요청</text>
<line x1="820" y1="292" x2="480" y2="292" stroke="#545B64" stroke-width="1.2" stroke-dasharray="5,4" marker-end="url(#arrow)"/>
<rect x="616.0" y="272" width="68" height="12" rx="2" fill="#ffffff"/>
<text x="650.0" y="281" fill="#545B64" font-size="8" font-family="'Geist Mono','Amazon Ember Mono',ui-monospace,monospace" text-anchor="middle" letter-spacing="0.06em">서명된 인증서</text>
<line x1="480" y1="336" x2="140" y2="336" stroke="#EC7211" stroke-width="1.2" marker-end="url(#arrow-accent)"/>
<rect x="272.0" y="316" width="76" height="12" rx="2" fill="#ffffff"/>
<text x="310.0" y="325" fill="#EC7211" font-size="8" font-family="'Geist Mono','Amazon Ember Mono',ui-monospace,monospace" text-anchor="middle" letter-spacing="0.06em">워크로드 인증서</text>
<rect x="86.0" y="380" width="108" height="20" rx="2" fill="rgba(35,47,62,0.04)" stroke="rgba(35,47,62,0.12)" stroke-width="0.8"/>
<text x="140" y="393" fill="#545B64" font-size="8" font-style="italic" font-family="'Amazon Ember','Helvetica Neue',Helvetica,Arial,sans-serif" text-anchor="middle">인증서 만료 전</text>
<line x1="140" y1="412" x2="480" y2="412" stroke="#545B64" stroke-width="1.2" marker-end="url(#arrow)"/>
<rect x="280.0" y="392" width="60" height="12" rx="2" fill="#ffffff"/>
<text x="310.0" y="401" fill="#545B64" font-size="8" font-family="'Geist Mono','Amazon Ember Mono',ui-monospace,monospace" text-anchor="middle" letter-spacing="0.06em">갱신 CSR</text>
<line x1="480" y1="456" x2="140" y2="456" stroke="#545B64" stroke-width="1.2" stroke-dasharray="5,4" marker-end="url(#arrow)"/>
<rect x="284.0" y="436" width="52" height="12" rx="2" fill="#ffffff"/>
<text x="310.0" y="445" fill="#545B64" font-size="8" font-family="'Geist Mono','Amazon Ember Mono',ui-monospace,monospace" text-anchor="middle" letter-spacing="0.06em">새 인증서</text>
<rect x="68.0" y="48" width="144" height="48" rx="6" fill="#ffffff"/>
<rect x="68.0" y="48" width="144" height="48" rx="6" fill="#ffffff" stroke="#232F3E" stroke-width="1"/>
<text x="140.0" y="76.0" fill="#232F3E" font-size="12" font-weight="600" font-family="'Amazon Ember','Helvetica Neue',Helvetica,Arial,sans-serif" text-anchor="middle">linkerd-proxy</text>
<rect x="408.0" y="48" width="144" height="48" rx="6" fill="#ffffff"/>
<rect x="408.0" y="48" width="144" height="48" rx="6" fill="#ffffff" stroke="#232F3E" stroke-width="1"/>
<text x="480.0" y="76.0" fill="#232F3E" font-size="12" font-weight="600" font-family="'Amazon Ember','Helvetica Neue',Helvetica,Arial,sans-serif" text-anchor="middle">Identity Controller</text>
<rect x="748.0" y="48" width="144" height="48" rx="6" fill="#ffffff"/>
<rect x="748.0" y="48" width="144" height="48" rx="6" fill="#ffffff" stroke="#232F3E" stroke-width="1"/>
<text x="820.0" y="70.0" fill="#232F3E" font-size="12" font-weight="600" font-family="'Amazon Ember','Helvetica Neue',Helvetica,Arial,sans-serif" text-anchor="middle">Trust Anchor</text>
<text x="820.0" y="88.0" fill="#545B64" font-size="9" font-family="'Geist Mono','Amazon Ember Mono',ui-monospace,monospace" text-anchor="middle">(CA)</text>
<line x1="40" y1="528" x2="920" y2="528" stroke="rgba(35,47,62,0.12)" stroke-width="0.8"/>
<text x="40" y="544" fill="#545B64" font-size="8" font-family="'Geist Mono','Amazon Ember Mono',ui-monospace,monospace" letter-spacing="0.18em">LEGEND</text>
<line x1="40" y1="563" x2="68" y2="563" stroke="#545B64" stroke-width="1.2" marker-end="url(#arrow)"/>
<text x="76" y="566" fill="#545B64" font-size="8.5" font-family="'Amazon Ember','Helvetica Neue',Helvetica,Arial,sans-serif">요청</text>
<line x1="116" y1="563" x2="144" y2="563" stroke="#545B64" stroke-width="1" stroke-dasharray="4,3" marker-end="url(#arrow)"/>
<text x="152" y="566" fill="#545B64" font-size="8.5" font-family="'Amazon Ember','Helvetica Neue',Helvetica,Arial,sans-serif">반환</text>
<line x1="192" y1="563" x2="220" y2="563" stroke="#EC7211" stroke-width="1.4" marker-end="url(#arrow-accent)"/>
<text x="228" y="566" fill="#545B64" font-size="8.5" font-family="'Amazon Ember','Helvetica Neue',Helvetica,Arial,sans-serif">발급 완료(핵심)</text>
</svg>